<svg width="16" height="19" viewBox="0 0 16 19" fill="none" xmlns="http://www.w3.org/2000/svg">
<path d="M8.25 0.75H8.47727C11.1949 0.75 12.5538 0.75 13.4974 1.41486C13.7678 1.60536 14.0079 1.83127 14.2103 2.08574C14.9167 2.97389 14.9167 4.2528 14.9167 6.81061V8.93182C14.9167 11.4011 14.9167 12.6358 14.5259 13.6219C13.8977 15.2071 12.5691 16.4576 10.8847 17.0489C9.83698 17.4167 8.52516 17.4167 5.90152 17.4167C4.40229 17.4167 3.65268 17.4167 3.05398 17.2065C2.09149 16.8686 1.33229 16.1541 0.973303 15.2482C0.75 14.6847 0.75 13.9792 0.75 12.5682V9.08333" stroke="#0F121C" stroke-width="1.5" stroke-linecap="round" stroke-linejoin="round"/>
<path d="M14.9168 9.08334C14.9168 10.6175 13.6732 11.8611 12.1391 11.8611C11.5842 11.8611 10.9301 11.7639 10.3907 11.9084C9.9114 12.0369 9.53703 12.4112 9.4086 12.8905C9.26406 13.43 9.36127 14.0841 9.36127 14.6389C9.36127 16.173 8.11762 17.4167 6.5835 17.4167" stroke="#0F121C" stroke-width="1.5" stroke-linecap="round" stroke-linejoin="round"/>
<path d="M1.5835 5.33334C1.9931 5.75475 3.08331 7.41667 3.66683 7.41667M5.75016 5.33334C5.34055 5.75475 4.25035 7.41667 3.66683 7.41667M3.66683 7.41667L3.66683 0.750005" stroke="#0F121C" stroke-width="1.5" stroke-linecap="round" stroke-linejoin="round"/>
</svg>
