<svg width="29" height="29" viewBox="0 0 29 29" fill="none" xmlns="http://www.w3.org/2000/svg">
<path d="M13.8711 0C17.497 0.000129473 20.6357 2.07584 22.1709 5.10254C25.7708 6.38746 28.3477 9.82604 28.3477 13.8672C28.3475 17.4942 26.2704 20.6333 23.2422 22.168C21.9591 25.7712 18.5201 28.3516 14.4766 28.3516C10.8463 28.3514 7.70405 26.2709 6.1709 23.2383C2.57424 21.9516 -4.18214e-07 18.5154 0 14.4766C0.000130027 10.8485 2.07776 7.70701 5.10742 6.17285C6.3934 2.57496 9.83136 0 13.8711 0ZM14.667 22.0771C13.1511 23.1488 11.3024 23.7812 9.30469 23.7812C9.17184 23.7812 9.0397 23.777 8.9082 23.7715C10.1722 25.26 12.021 26.2363 14.1006 26.3418L14.4766 26.3516C17.0366 26.3516 19.2865 25.0326 20.5908 23.0391C20.0872 23.1234 19.5705 23.1709 19.043 23.1709C17.4606 23.1708 15.9716 22.7739 14.667 22.0771ZM7.71484 16.2783C7.40985 17.0222 7.22443 17.8278 7.18164 18.6709L7.17285 19.0469C7.17285 19.9396 7.33482 20.7942 7.62793 21.585C8.16654 21.7115 8.72747 21.7812 9.30469 21.7812L9.68066 21.7715C10.8424 21.7125 11.9323 21.3815 12.8887 20.8418C12.0088 20.0648 11.2781 19.1243 10.7422 18.0674C9.61702 17.6656 8.59257 17.0536 7.71484 16.2783ZM20.8418 15.4619C20.0644 16.3414 19.1237 17.0711 18.0664 17.6064C17.665 18.7302 17.0534 19.7529 16.2793 20.6299C17.0219 20.9338 17.8256 21.1194 18.667 21.1621L19.043 21.1709C19.938 21.1709 20.7945 21.0074 21.5869 20.7129C21.7119 20.1775 21.7812 19.6203 21.7812 19.0469L21.7715 18.6709C21.7125 17.5088 21.3817 16.4185 20.8418 15.4619ZM4.5752 8.91113C3.0891 10.175 2.1152 12.023 2.00977 14.1006L2 14.4766C2 17.0322 3.31391 19.2796 5.30176 20.585C5.21849 20.0845 5.17285 19.5709 5.17285 19.0469C5.17291 17.4623 5.56998 15.9709 6.26855 14.665C5.19783 13.1495 4.56648 11.3014 4.56641 9.30469C4.56641 9.17284 4.56976 9.04165 4.5752 8.91113ZM15.4141 18.4775C14.912 18.5614 14.3969 18.6084 13.8711 18.6084C13.7402 18.6084 13.61 18.604 13.4805 18.5986C13.7912 18.9636 14.1367 19.2979 14.5127 19.5957C14.8485 19.2541 15.1502 18.8796 15.4141 18.4775ZM23.0439 7.75684C23.1283 8.26038 23.1748 8.77719 23.1748 9.30469C23.1747 10.8891 22.7766 12.3798 22.0781 13.6855C23.1493 15.2013 23.7812 17.0497 23.7812 19.0469C23.7812 19.1758 23.7767 19.304 23.7715 19.4316C25.2576 18.1677 26.2325 16.3208 26.3379 14.2432L26.3477 13.8672C26.3477 11.3105 25.0331 9.06198 23.0439 7.75684ZM14.4766 11.7432C13.5806 11.7432 12.7229 11.906 11.9297 12.2012C11.8323 12.6186 11.7704 13.0497 11.748 13.4912L11.7393 13.8672C11.7393 14.7636 11.9028 15.6215 12.1982 16.415C12.6179 16.5134 13.0511 16.5771 13.4951 16.5996L13.8711 16.6084C14.7661 16.6084 15.6226 16.445 16.415 16.1504C16.5135 15.7305 16.5771 15.2969 16.5996 14.8525L16.6084 14.4766C16.6084 13.5828 16.4462 12.7271 16.1523 11.9355C15.7319 11.8369 15.2975 11.7745 14.8525 11.752L14.4766 11.7432ZM9.74805 13.4805C9.3829 13.7909 9.04802 14.136 8.75 14.5117C9.09178 14.8479 9.46676 15.1499 9.86914 15.4141C9.78491 14.9109 9.73928 14.3943 9.73926 13.8672C9.73926 13.7376 9.7428 13.6087 9.74805 13.4805ZM18.4785 12.9375C18.5619 13.4383 18.6084 13.9521 18.6084 14.4766C18.6084 14.6084 18.6041 14.7396 18.5986 14.8701C18.9639 14.5596 19.2986 14.2147 19.5967 13.8389C19.2552 13.5031 18.8805 13.2014 18.4785 12.9375ZM9.30469 7.17285C8.41012 7.17285 7.55384 7.33561 6.76172 7.62988C6.63546 8.16786 6.56641 8.72821 6.56641 9.30469L6.57617 9.68066C6.63512 10.8423 6.96536 11.9324 7.50488 12.8887C8.28133 12.0103 9.22071 11.2803 10.2764 10.7451C10.6777 9.61797 11.2913 8.59206 12.0674 7.71289C11.3251 7.40929 10.5216 7.22432 9.68066 7.18164L9.30469 7.17285ZM18.667 6.57227C17.5051 6.63123 16.4145 6.96121 15.458 7.50098C16.3407 8.28023 17.0729 9.2243 17.6094 10.2852C18.7326 10.6868 19.7553 11.2983 20.6318 12.0723C20.9367 11.3285 21.1232 10.5236 21.166 9.68066L21.1748 9.30469C21.1748 8.40827 21.0113 7.55033 20.7158 6.75684C20.1785 6.63089 19.6187 6.5625 19.043 6.5625L18.667 6.57227ZM13.834 8.74707C13.4958 9.09108 13.1919 9.4687 12.9268 9.87402C13.4309 9.78946 13.9484 9.74318 14.4766 9.74316C14.6094 9.74316 14.7416 9.74644 14.873 9.75195C14.5605 9.38391 14.2128 9.04697 13.834 8.74707ZM13.8711 2C11.3147 2 9.06595 3.31401 7.76074 5.30273C8.26304 5.21883 8.77857 5.17285 9.30469 5.17285C10.8866 5.17291 12.3754 5.56922 13.6797 6.26562C15.1956 5.19386 17.0452 4.56257 19.043 4.5625C19.1735 4.5625 19.3034 4.56596 19.4326 4.57129C18.1688 3.08755 16.3227 2.1151 14.2471 2.00977L13.8711 2Z" fill="#8CD8BC"/>
</svg>
