<svg width="1124" height="480" viewBox="0 0 1124 480" fill="none" xmlns="http://www.w3.org/2000/svg">
<g clip-path="url(#clip0_1_6503)">
<rect opacity="0.4" width="1157.29" height="578.644" transform="matrix(-1 0 0 1 1123 -99)" fill="url(#paint0_radial_1_6503)"/>
<mask id="mask0_1_6503" style="mask-type:alpha" maskUnits="userSpaceOnUse" x="124" y="-219" width="842" height="706">
<rect x="965.48" y="486.422" width="840.963" height="704.981" transform="rotate(180 965.48 486.422)" fill="url(#paint1_radial_1_6503)"/>
</mask>
<g mask="url(#mask0_1_6503)">
</g>
<g clip-path="url(#clip1_1_6503)">
<g opacity="0.7">
<path opacity="0.11" d="M812.071 133.912C811.452 133.82 810.876 134.248 810.784 134.867C810.692 135.486 811.119 136.062 811.738 136.154C812.358 136.246 812.934 135.818 813.026 135.199C813.118 134.58 812.69 134.004 812.071 133.912Z" fill="white"/>
<path d="M809.35 127.21C808.886 127.141 808.454 127.462 808.385 127.926C808.316 128.39 808.637 128.822 809.101 128.891C809.565 128.96 809.997 128.639 810.066 128.175C810.135 127.711 809.815 127.279 809.35 127.21Z" fill="white"/>
<path d="M789.112 136.226C788.648 136.157 788.216 136.477 788.147 136.941C788.078 137.406 788.399 137.838 788.863 137.907C789.327 137.975 789.759 137.655 789.828 137.191C789.897 136.727 789.576 136.295 789.112 136.226Z" fill="white"/>
<path d="M836.565 144.421C836.101 144.352 835.669 144.673 835.6 145.137C835.531 145.601 835.852 146.033 836.316 146.102C836.78 146.171 837.212 145.85 837.281 145.386C837.35 144.922 837.029 144.49 836.565 144.421Z" fill="white"/>
<path opacity="0.11" d="M866.298 135.084C865.679 134.992 865.102 135.42 865.01 136.039C864.919 136.658 865.346 137.234 865.965 137.326C866.584 137.418 867.16 136.99 867.252 136.371C867.344 135.752 866.917 135.176 866.298 135.084Z" fill="white"/>
<path d="M875.106 148.992C874.797 148.946 874.509 149.16 874.463 149.469C874.417 149.778 874.631 150.066 874.94 150.112C875.249 150.158 875.537 149.945 875.583 149.635C875.629 149.326 875.415 149.038 875.106 148.992Z" fill="white"/>
<path d="M816.997 112.313C816.688 112.267 816.4 112.48 816.354 112.789C816.308 113.099 816.521 113.387 816.831 113.433C817.14 113.478 817.428 113.265 817.474 112.956C817.52 112.646 817.306 112.358 816.997 112.313Z" fill="white"/>
<path d="M694.864 94.1876C694.555 94.1417 694.267 94.3553 694.221 94.6645C694.175 94.9738 694.389 95.2617 694.698 95.3076C695.007 95.3534 695.295 95.14 695.341 94.8307C695.387 94.5214 695.173 94.2335 694.864 94.1876Z" fill="white"/>
<path d="M629.309 115.383C629 115.337 628.712 115.551 628.666 115.86C628.62 116.169 628.834 116.457 629.143 116.503C629.452 116.549 629.74 116.335 629.786 116.026C629.832 115.717 629.619 115.429 629.309 115.383Z" fill="white"/>
<path d="M613.524 71.2423C613.215 71.1964 612.927 71.4099 612.881 71.7192C612.835 72.0285 613.049 72.3164 613.358 72.3622C613.667 72.4081 613.955 72.1946 614.001 71.8854C614.047 71.5761 613.833 71.2882 613.524 71.2423Z" fill="white"/>
<path d="M1001.48 154C1001.17 153.954 1000.88 154.168 1000.84 154.477C1000.79 154.786 1001.01 155.074 1001.32 155.12C1001.62 155.166 1001.91 154.952 1001.96 154.643C1002 154.334 1001.79 154.046 1001.48 154Z" fill="white"/>
<path opacity="0.11" d="M1005.39 185.492C1005.08 185.446 1004.79 185.66 1004.74 185.969C1004.7 186.278 1004.91 186.566 1005.22 186.612C1005.53 186.658 1005.82 186.445 1005.86 186.135C1005.91 185.826 1005.7 185.538 1005.39 185.492Z" fill="white"/>
<path opacity="0.11" d="M1031.39 176.18C1031.08 176.134 1030.79 176.347 1030.74 176.657C1030.7 176.966 1030.91 177.254 1031.22 177.3C1031.53 177.346 1031.82 177.132 1031.86 176.823C1031.91 176.514 1031.7 176.226 1031.39 176.18Z" fill="white"/>
<path opacity="0.11" d="M1017.89 139.828C1017.58 139.782 1017.29 139.996 1017.24 140.305C1017.2 140.614 1017.41 140.902 1017.72 140.948C1018.03 140.994 1018.32 140.781 1018.36 140.471C1018.41 140.162 1018.2 139.874 1017.89 139.828Z" fill="white"/>
<path opacity="0.11" d="M881.235 142.461C880.926 142.415 880.638 142.629 880.592 142.938C880.546 143.247 880.76 143.535 881.069 143.581C881.378 143.627 881.666 143.413 881.712 143.104C881.758 142.795 881.544 142.507 881.235 142.461Z" fill="white"/>
<path opacity="0.11" d="M821.106 92.3048C820.797 92.2589 820.509 92.4724 820.463 92.7817C820.417 93.091 820.631 93.3789 820.94 93.4247C821.249 93.4706 821.537 93.2571 821.583 92.9479C821.629 92.6386 821.415 92.3507 821.106 92.3048Z" fill="white"/>
<path opacity="0.11" d="M712.716 81.9532C712.406 81.9073 712.118 82.1209 712.073 82.4301C712.027 82.7394 712.24 83.0273 712.549 83.0732C712.859 83.1191 713.147 82.9056 713.192 82.5963C713.238 82.287 713.025 81.9991 712.716 81.9532Z" fill="white"/>
<path opacity="0.3" d="M973.63 164.18C973.32 164.134 973.032 164.347 972.987 164.657C972.941 164.966 973.154 165.254 973.463 165.3C973.773 165.346 974.061 165.132 974.107 164.823C974.152 164.514 973.939 164.226 973.63 164.18Z" fill="white"/>
<path d="M840.286 175.313C839.977 175.267 839.689 175.48 839.643 175.79C839.597 176.099 839.81 176.387 840.12 176.433C840.429 176.478 840.717 176.265 840.763 175.956C840.809 175.646 840.595 175.358 840.286 175.313Z" fill="white"/>
<path d="M753.844 163.633C753.535 163.587 753.247 163.801 753.201 164.11C753.156 164.419 753.369 164.707 753.678 164.753C753.988 164.799 754.275 164.585 754.321 164.276C754.367 163.967 754.154 163.679 753.844 163.633Z" fill="white"/>
<path d="M886.032 129.422C885.723 129.376 885.435 129.59 885.389 129.899C885.343 130.208 885.557 130.496 885.866 130.542C886.175 130.588 886.463 130.374 886.509 130.065C886.555 129.756 886.341 129.468 886.032 129.422Z" fill="white"/>
<path opacity="0.3" d="M925.243 135.242C924.934 135.196 924.646 135.41 924.6 135.719C924.554 136.028 924.767 136.316 925.077 136.362C925.386 136.408 925.674 136.195 925.72 135.885C925.766 135.576 925.552 135.288 925.243 135.242Z" fill="white"/>
<path opacity="0.11" d="M966.028 176.797C965.719 176.751 965.431 176.965 965.385 177.274C965.339 177.583 965.553 177.871 965.862 177.917C966.171 177.963 966.459 177.749 966.505 177.44C966.551 177.131 966.337 176.843 966.028 176.797Z" fill="white"/>
<path opacity="0.3" d="M832.196 160.375C831.887 160.329 831.599 160.543 831.553 160.852C831.507 161.161 831.721 161.449 832.03 161.495C832.339 161.541 832.627 161.327 832.673 161.018C832.719 160.709 832.505 160.421 832.196 160.375Z" fill="white"/>
<path opacity="0.3" d="M878.079 117.367C877.77 117.321 877.482 117.535 877.436 117.844C877.39 118.153 877.603 118.441 877.913 118.487C878.222 118.533 878.51 118.32 878.556 118.01C878.602 117.701 878.388 117.413 878.079 117.367Z" fill="white"/>
<path opacity="0.3" d="M946.7 121.82C946.391 121.775 946.103 121.988 946.057 122.297C946.011 122.607 946.225 122.894 946.534 122.94C946.843 122.986 947.131 122.773 947.177 122.463C947.223 122.154 947.009 121.866 946.7 121.82Z" fill="white"/>
<path opacity="0.3" d="M957.38 161.766C957.07 161.72 956.782 161.933 956.737 162.243C956.691 162.552 956.904 162.84 957.213 162.886C957.523 162.932 957.811 162.718 957.857 162.409C957.902 162.099 957.689 161.812 957.38 161.766Z" fill="white"/>
<path opacity="0.3" d="M608.665 111.742C608.356 111.696 608.068 111.91 608.022 112.219C607.976 112.528 608.189 112.816 608.499 112.862C608.808 112.908 609.096 112.695 609.142 112.385C609.188 112.076 608.974 111.788 608.665 111.742Z" fill="white"/>
<path opacity="0.11" d="M695.454 148.102C695.145 148.056 694.857 148.269 694.811 148.579C694.765 148.888 694.978 149.176 695.288 149.222C695.597 149.268 695.885 149.054 695.931 148.745C695.977 148.435 695.763 148.148 695.454 148.102Z" fill="white"/>
<path opacity="0.11" d="M627.364 89.9063C627.055 89.8604 626.767 90.074 626.721 90.3832C626.675 90.6925 626.889 90.9804 627.198 91.0263C627.507 91.0722 627.795 90.8587 627.841 90.5494C627.887 90.2401 627.673 89.9522 627.364 89.9063Z" fill="white"/>
<path opacity="0.3" d="M769.856 105.897C769.237 105.805 768.661 106.232 768.569 106.851C768.477 107.47 768.905 108.047 769.524 108.138C770.143 108.23 770.719 107.803 770.811 107.184C770.903 106.565 770.475 105.988 769.856 105.897Z" fill="white"/>
<path opacity="0.11" d="M734.305 117.795C733.686 117.703 733.11 118.131 733.018 118.75C732.926 119.369 733.354 119.945 733.973 120.037C734.592 120.129 735.168 119.701 735.26 119.082C735.352 118.463 734.924 117.887 734.305 117.795Z" fill="white"/>
<path d="M731.675 137.444C731.21 137.376 730.778 137.696 730.709 138.16C730.641 138.624 730.961 139.056 731.425 139.125C731.889 139.194 732.321 138.874 732.39 138.41C732.459 137.945 732.139 137.513 731.675 137.444Z" fill="white"/>
<path d="M779.061 84.3507C778.597 84.2819 778.165 84.6023 778.096 85.0664C778.027 85.5306 778.348 85.9627 778.812 86.0316C779.276 86.1004 779.708 85.78 779.777 85.3158C779.846 84.8517 779.525 84.4196 779.061 84.3507Z" fill="white"/>
<path d="M594.718 45.546C594.253 45.4771 593.821 45.7976 593.752 46.2618C593.684 46.7259 594.004 47.158 594.468 47.2269C594.932 47.2957 595.364 46.9753 595.433 46.5112C595.502 46.047 595.182 45.6149 594.718 45.546Z" fill="white"/>
<path d="M956.905 109.023C956.441 108.954 956.009 109.274 955.94 109.738C955.871 110.202 956.191 110.635 956.656 110.703C957.12 110.772 957.552 110.452 957.621 109.988C957.69 109.524 957.369 109.091 956.905 109.023Z" fill="white"/>
<path d="M1029.5 132.96C1029.04 132.891 1028.61 133.212 1028.54 133.676C1028.47 134.14 1028.79 134.572 1029.25 134.641C1029.72 134.71 1030.15 134.389 1030.22 133.925C1030.29 133.461 1029.97 133.029 1029.5 132.96Z" fill="white"/>
<path d="M1035.7 156.78C1035.24 156.711 1034.81 157.032 1034.74 157.496C1034.67 157.96 1034.99 158.392 1035.45 158.461C1035.92 158.53 1036.35 158.21 1036.42 157.745C1036.49 157.281 1036.17 156.849 1035.7 156.78Z" fill="white"/>
<path d="M760.229 130.226C759.765 130.157 759.333 130.477 759.264 130.941C759.195 131.406 759.516 131.838 759.98 131.907C760.444 131.975 760.876 131.655 760.945 131.191C761.014 130.727 760.693 130.295 760.229 130.226Z" fill="white"/>
<path d="M863.854 103.233C863.39 103.165 862.958 103.485 862.889 103.949C862.82 104.413 863.141 104.845 863.605 104.914C864.069 104.983 864.501 104.663 864.57 104.199C864.639 103.734 864.318 103.302 863.854 103.233Z" fill="white"/>
<path d="M726.257 58.1945C725.792 58.1256 725.36 58.446 725.291 58.9102C725.223 59.3744 725.543 59.8065 726.007 59.8753C726.471 59.9442 726.903 59.6238 726.972 59.1596C727.041 58.6954 726.721 58.2633 726.257 58.1945Z" fill="white"/>
<path d="M572.139 74.2647C571.675 74.1959 571.243 74.5163 571.174 74.9805C571.105 75.4446 571.426 75.8768 571.89 75.9456C572.354 76.0145 572.786 75.694 572.855 75.2299C572.924 74.7657 572.604 74.3336 572.139 74.2647Z" fill="white"/>
<path d="M554.12 103.085C553.656 103.016 553.224 103.337 553.155 103.801C553.086 104.265 553.406 104.697 553.871 104.766C554.335 104.835 554.767 104.514 554.836 104.05C554.905 103.586 554.584 103.154 554.12 103.085Z" fill="white"/>
<path opacity="0.3" d="M685.536 130.022C684.917 129.93 684.341 130.357 684.249 130.976C684.157 131.595 684.584 132.172 685.203 132.263C685.822 132.355 686.399 131.928 686.491 131.309C686.582 130.69 686.155 130.113 685.536 130.022Z" fill="white"/>
<path d="M679.637 169.803C679.018 169.711 678.442 170.138 678.35 170.757C678.258 171.377 678.686 171.953 679.305 172.045C679.924 172.137 680.5 171.709 680.592 171.09C680.684 170.471 680.257 169.895 679.637 169.803Z" fill="white"/>
<path d="M658.514 113.413C658.05 113.344 657.618 113.665 657.549 114.129C657.48 114.593 657.801 115.025 658.265 115.094C658.729 115.163 659.161 114.842 659.23 114.378C659.299 113.914 658.979 113.482 658.514 113.413Z" fill="white"/>
<path opacity="0.3" d="M628.094 131.233C627.475 131.141 626.899 131.568 626.807 132.187C626.715 132.806 627.143 133.382 627.762 133.474C628.381 133.566 628.957 133.139 629.049 132.52C629.141 131.901 628.714 131.324 628.094 131.233Z" fill="white"/>
<path opacity="0.3" d="M578.536 83.2325C577.917 83.1407 577.341 83.5681 577.249 84.1871C577.157 84.8062 577.584 85.3825 578.203 85.4743C578.822 85.5662 579.399 85.1388 579.491 84.5197C579.582 83.9007 579.155 83.3244 578.536 83.2325Z" fill="white"/>
<path opacity="0.3" d="M644.251 91.8341C643.632 91.7422 643.055 92.1696 642.964 92.7887C642.872 93.4077 643.299 93.984 643.918 94.0759C644.537 94.1677 645.114 93.7403 645.205 93.1213C645.297 92.5022 644.87 91.9259 644.251 91.8341Z" fill="white"/>
<path opacity="0.3" d="M967.243 130.022C966.624 129.93 966.048 130.357 965.956 130.976C965.864 131.595 966.291 132.172 966.91 132.263C967.529 132.355 968.106 131.928 968.198 131.309C968.289 130.69 967.862 130.113 967.243 130.022Z" fill="white"/>
<path opacity="0.3" d="M1008.05 167.568C1007.43 167.477 1006.86 167.904 1006.76 168.523C1006.67 169.142 1007.1 169.718 1007.72 169.81C1008.34 169.902 1008.91 169.475 1009.01 168.856C1009.1 168.237 1008.67 167.66 1008.05 167.568Z" fill="white"/>
<path opacity="0.11" d="M599.012 103.443C598.393 103.352 597.817 103.779 597.725 104.398C597.633 105.017 598.061 105.593 598.68 105.685C599.299 105.777 599.875 105.35 599.967 104.731C600.059 104.112 599.632 103.535 599.012 103.443Z" fill="white"/>
<path opacity="0.3" d="M925.11 174.732C924.491 174.641 923.915 175.068 923.823 175.687C923.731 176.306 924.158 176.882 924.778 176.974C925.397 177.066 925.973 176.639 926.065 176.02C926.157 175.401 925.729 174.824 925.11 174.732Z" fill="white"/>
<path opacity="0.11" d="M938.575 188.178C937.956 188.086 937.38 188.513 937.288 189.132C937.196 189.751 937.623 190.328 938.242 190.42C938.861 190.511 939.438 190.084 939.53 189.465C939.621 188.846 939.194 188.27 938.575 188.178Z" fill="white"/>
<path opacity="0.3" d="M948.372 152.99C947.753 152.899 947.176 153.326 947.085 153.945C946.993 154.564 947.42 155.14 948.039 155.232C948.658 155.324 949.235 154.897 949.326 154.278C949.418 153.658 948.991 153.082 948.372 152.99Z" fill="white"/>
<path d="M913.284 148.358C912.82 148.29 912.388 148.61 912.319 149.074C912.25 149.538 912.57 149.971 913.035 150.039C913.499 150.108 913.931 149.788 914 149.324C914.069 148.859 913.748 148.427 913.284 148.358Z" fill="white"/>
<path opacity="0.11" d="M592.942 276.248C592.323 276.156 591.747 276.584 591.655 277.203C591.563 277.822 591.991 278.398 592.61 278.49C593.229 278.582 593.805 278.154 593.897 277.535C593.989 276.916 593.561 276.34 592.942 276.248Z" fill="white"/>
<path d="M590.221 269.546C589.757 269.477 589.325 269.798 589.256 270.262C589.187 270.726 589.508 271.158 589.972 271.227C590.436 271.296 590.868 270.975 590.937 270.511C591.006 270.047 590.686 269.615 590.221 269.546Z" fill="white"/>
<path d="M569.983 278.569C569.519 278.501 569.087 278.821 569.018 279.285C568.949 279.749 569.27 280.181 569.734 280.25C570.198 280.319 570.63 279.999 570.699 279.535C570.768 279.07 570.447 278.638 569.983 278.569Z" fill="white"/>
<path d="M617.432 286.757C616.968 286.688 616.536 287.008 616.467 287.473C616.398 287.937 616.719 288.369 617.183 288.438C617.647 288.507 618.079 288.186 618.148 287.722C618.217 287.258 617.897 286.826 617.432 286.757Z" fill="white"/>
<path opacity="0.11" d="M647.169 277.428C646.55 277.336 645.973 277.763 645.882 278.382C645.79 279.001 646.217 279.578 646.836 279.67C647.455 279.762 648.031 279.334 648.123 278.715C648.215 278.096 647.788 277.52 647.169 277.428Z" fill="white"/>
<path d="M655.981 291.328C655.672 291.282 655.384 291.496 655.338 291.805C655.292 292.114 655.506 292.402 655.815 292.448C656.124 292.494 656.412 292.281 656.458 291.971C656.504 291.662 656.29 291.374 655.981 291.328Z" fill="white"/>
<path d="M597.864 254.656C597.555 254.61 597.267 254.824 597.221 255.133C597.175 255.442 597.389 255.73 597.698 255.776C598.007 255.822 598.295 255.609 598.341 255.299C598.387 254.99 598.173 254.702 597.864 254.656Z" fill="white"/>
<path d="M475.736 236.531C475.426 236.485 475.138 236.699 475.093 237.008C475.047 237.318 475.26 237.605 475.569 237.651C475.879 237.697 476.167 237.484 476.212 237.174C476.258 236.865 476.045 236.577 475.736 236.531Z" fill="white"/>
<path d="M410.181 257.727C409.872 257.681 409.584 257.894 409.538 258.204C409.492 258.513 409.705 258.801 410.015 258.847C410.324 258.892 410.612 258.679 410.658 258.37C410.704 258.06 410.49 257.773 410.181 257.727Z" fill="white"/>
<path d="M394.4 213.578C394.09 213.532 393.802 213.746 393.757 214.055C393.711 214.364 393.924 214.652 394.233 214.698C394.543 214.744 394.831 214.531 394.877 214.221C394.922 213.912 394.709 213.624 394.4 213.578Z" fill="white"/>
<path d="M782.352 296.336C782.043 296.29 781.755 296.504 781.709 296.813C781.663 297.122 781.877 297.41 782.186 297.456C782.495 297.502 782.783 297.288 782.829 296.979C782.875 296.67 782.662 296.382 782.352 296.336Z" fill="white"/>
<path opacity="0.11" d="M786.262 327.836C785.953 327.79 785.665 328.004 785.619 328.313C785.573 328.622 785.787 328.91 786.096 328.956C786.406 329.002 786.693 328.788 786.739 328.479C786.785 328.17 786.572 327.882 786.262 327.836Z" fill="white"/>
<path opacity="0.11" d="M812.266 318.524C811.957 318.478 811.669 318.691 811.623 319C811.577 319.31 811.791 319.598 812.1 319.643C812.409 319.689 812.697 319.476 812.743 319.167C812.789 318.857 812.576 318.569 812.266 318.524Z" fill="white"/>
<path opacity="0.11" d="M798.762 282.164C798.453 282.118 798.165 282.332 798.119 282.641C798.073 282.95 798.287 283.238 798.596 283.284C798.906 283.33 799.193 283.116 799.239 282.807C799.285 282.498 799.072 282.21 798.762 282.164Z" fill="white"/>
<path opacity="0.11" d="M662.11 284.797C661.801 284.751 661.513 284.965 661.467 285.274C661.421 285.583 661.635 285.871 661.944 285.917C662.253 285.963 662.541 285.749 662.587 285.44C662.633 285.131 662.419 284.843 662.11 284.797Z" fill="white"/>
<path opacity="0.11" d="M601.973 234.649C601.664 234.603 601.376 234.816 601.33 235.125C601.284 235.435 601.498 235.723 601.807 235.768C602.116 235.814 602.404 235.601 602.45 235.292C602.496 234.982 602.283 234.694 601.973 234.649Z" fill="white"/>
<path opacity="0.11" d="M493.583 224.289C493.273 224.243 492.986 224.457 492.94 224.766C492.894 225.075 493.107 225.363 493.417 225.409C493.726 225.455 494.014 225.241 494.06 224.932C494.106 224.623 493.892 224.335 493.583 224.289Z" fill="white"/>
<path opacity="0.3" d="M754.501 306.524C754.191 306.478 753.904 306.691 753.858 307C753.812 307.31 754.025 307.598 754.335 307.643C754.644 307.689 754.932 307.476 754.978 307.167C755.024 306.857 754.81 306.569 754.501 306.524Z" fill="white"/>
<path d="M621.157 317.656C620.848 317.61 620.56 317.824 620.514 318.133C620.468 318.442 620.682 318.73 620.991 318.776C621.3 318.822 621.588 318.609 621.634 318.299C621.68 317.99 621.466 317.702 621.157 317.656Z" fill="white"/>
<path d="M534.716 305.977C534.406 305.931 534.118 306.144 534.072 306.454C534.027 306.763 534.24 307.051 534.549 307.097C534.859 307.142 535.147 306.929 535.192 306.62C535.238 306.31 535.025 306.023 534.716 305.977Z" fill="white"/>
<path d="M666.899 271.766C666.59 271.72 666.302 271.933 666.256 272.243C666.21 272.552 666.424 272.84 666.733 272.886C667.042 272.932 667.33 272.718 667.376 272.409C667.422 272.1 667.208 271.812 666.899 271.766Z" fill="white"/>
<path opacity="0.3" d="M706.118 277.586C705.809 277.54 705.521 277.754 705.475 278.063C705.429 278.372 705.642 278.66 705.952 278.706C706.261 278.752 706.549 278.538 706.595 278.229C706.641 277.92 706.427 277.632 706.118 277.586Z" fill="white"/>
<path opacity="0.11" d="M746.895 319.133C746.586 319.087 746.298 319.301 746.252 319.61C746.206 319.919 746.42 320.207 746.729 320.253C747.038 320.299 747.326 320.085 747.372 319.776C747.418 319.467 747.205 319.179 746.895 319.133Z" fill="white"/>
<path opacity="0.3" d="M613.059 302.711C612.75 302.665 612.462 302.879 612.416 303.188C612.37 303.497 612.584 303.785 612.893 303.831C613.202 303.877 613.49 303.663 613.536 303.354C613.582 303.045 613.369 302.757 613.059 302.711Z" fill="white"/>
<path opacity="0.3" d="M658.954 259.703C658.645 259.657 658.357 259.871 658.311 260.18C658.265 260.489 658.478 260.777 658.788 260.823C659.097 260.869 659.385 260.656 659.431 260.346C659.477 260.037 659.263 259.749 658.954 259.703Z" fill="white"/>
<path opacity="0.3" d="M727.575 264.164C727.266 264.118 726.978 264.332 726.932 264.641C726.886 264.95 727.1 265.238 727.409 265.284C727.718 265.33 728.006 265.117 728.052 264.807C728.098 264.498 727.884 264.21 727.575 264.164Z" fill="white"/>
<path opacity="0.3" d="M738.255 304.109C737.945 304.064 737.657 304.277 737.612 304.586C737.566 304.896 737.779 305.184 738.088 305.229C738.398 305.275 738.686 305.062 738.732 304.753C738.777 304.443 738.564 304.155 738.255 304.109Z" fill="white"/>
<path opacity="0.3" d="M389.536 254.086C389.227 254.04 388.939 254.254 388.893 254.563C388.847 254.872 389.06 255.16 389.37 255.206C389.679 255.252 389.967 255.038 390.013 254.729C390.059 254.42 389.845 254.132 389.536 254.086Z" fill="white"/>
<path opacity="0.11" d="M476.325 290.438C476.016 290.392 475.728 290.605 475.682 290.914C475.636 291.224 475.85 291.512 476.159 291.558C476.469 291.603 476.756 291.39 476.802 291.081C476.848 290.771 476.635 290.483 476.325 290.438Z" fill="white"/>
<path opacity="0.11" d="M408.239 232.242C407.93 232.196 407.642 232.41 407.596 232.719C407.551 233.028 407.764 233.316 408.073 233.362C408.383 233.408 408.67 233.195 408.716 232.885C408.762 232.576 408.549 232.288 408.239 232.242Z" fill="white"/>
<path opacity="0.3" d="M550.727 248.225C550.108 248.133 549.532 248.56 549.44 249.179C549.348 249.798 549.776 250.375 550.395 250.467C551.014 250.558 551.59 250.131 551.682 249.512C551.774 248.893 551.346 248.317 550.727 248.225Z" fill="white"/>
<path opacity="0.11" d="M515.18 260.131C514.561 260.039 513.985 260.466 513.893 261.086C513.801 261.705 514.229 262.281 514.848 262.373C515.467 262.465 516.043 262.037 516.135 261.418C516.227 260.799 515.8 260.223 515.18 260.131Z" fill="white"/>
<path d="M512.546 279.78C512.081 279.711 511.649 280.032 511.581 280.496C511.512 280.96 511.832 281.392 512.296 281.461C512.76 281.53 513.193 281.21 513.261 280.745C513.33 280.281 513.01 279.849 512.546 279.78Z" fill="white"/>
<path d="M559.928 226.687C559.464 226.618 559.032 226.938 558.963 227.402C558.894 227.867 559.215 228.299 559.679 228.367C560.143 228.436 560.575 228.116 560.644 227.652C560.713 227.188 560.393 226.755 559.928 226.687Z" fill="white"/>
<path d="M375.597 187.89C375.133 187.821 374.701 188.141 374.632 188.605C374.563 189.07 374.883 189.502 375.348 189.571C375.812 189.639 376.244 189.319 376.313 188.855C376.382 188.391 376.061 187.959 375.597 187.89Z" fill="white"/>
<path d="M737.78 251.358C737.316 251.29 736.884 251.61 736.815 252.074C736.746 252.538 737.066 252.97 737.531 253.039C737.995 253.108 738.427 252.788 738.496 252.324C738.565 251.859 738.244 251.427 737.78 251.358Z" fill="white"/>
<path d="M810.37 275.296C809.906 275.227 809.474 275.548 809.405 276.012C809.336 276.476 809.656 276.908 810.12 276.977C810.585 277.046 811.017 276.725 811.086 276.261C811.154 275.797 810.834 275.365 810.37 275.296Z" fill="white"/>
<path d="M816.573 299.124C816.109 299.055 815.677 299.376 815.608 299.84C815.539 300.304 815.859 300.736 816.324 300.805C816.788 300.874 817.22 300.553 817.289 300.089C817.358 299.625 817.037 299.193 816.573 299.124Z" fill="white"/>
<path d="M541.1 272.569C540.636 272.501 540.204 272.821 540.135 273.285C540.066 273.749 540.387 274.181 540.851 274.25C541.315 274.319 541.747 273.999 541.816 273.535C541.885 273.07 541.565 272.638 541.1 272.569Z" fill="white"/>
<path d="M644.733 245.569C644.269 245.501 643.837 245.821 643.768 246.285C643.699 246.749 644.02 247.181 644.484 247.25C644.948 247.319 645.38 246.999 645.449 246.535C645.518 246.07 645.197 245.638 644.733 245.569Z" fill="white"/>
<path d="M507.124 200.53C506.66 200.461 506.228 200.782 506.159 201.246C506.09 201.71 506.41 202.142 506.874 202.211C507.339 202.28 507.771 201.96 507.84 201.495C507.908 201.031 507.588 200.599 507.124 200.53Z" fill="white"/>
<path d="M353.011 216.601C352.546 216.532 352.114 216.852 352.045 217.316C351.977 217.781 352.297 218.213 352.761 218.282C353.225 218.35 353.657 218.03 353.726 217.566C353.795 217.102 353.475 216.67 353.011 216.601Z" fill="white"/>
<path d="M334.991 245.421C334.527 245.352 334.095 245.673 334.026 246.137C333.957 246.601 334.278 247.033 334.742 247.102C335.206 247.171 335.638 246.85 335.707 246.386C335.776 245.922 335.456 245.49 334.991 245.421Z" fill="white"/>
<path opacity="0.3" d="M466.411 272.358C465.792 272.266 465.216 272.693 465.124 273.312C465.032 273.931 465.46 274.507 466.079 274.599C466.698 274.691 467.274 274.264 467.366 273.645C467.458 273.026 467.03 272.449 466.411 272.358Z" fill="white"/>
<path d="M460.505 312.139C459.886 312.047 459.309 312.474 459.217 313.093C459.126 313.712 459.553 314.289 460.172 314.381C460.791 314.472 461.367 314.045 461.459 313.426C461.551 312.807 461.124 312.231 460.505 312.139Z" fill="white"/>
<path d="M439.382 255.757C438.918 255.688 438.486 256.009 438.417 256.473C438.348 256.937 438.669 257.369 439.133 257.438C439.597 257.507 440.029 257.186 440.098 256.722C440.167 256.258 439.846 255.826 439.382 255.757Z" fill="white"/>
<path opacity="0.3" d="M408.97 273.576C408.351 273.484 407.775 273.912 407.683 274.531C407.591 275.15 408.018 275.726 408.637 275.818C409.256 275.91 409.833 275.483 409.925 274.863C410.016 274.244 409.589 273.668 408.97 273.576Z" fill="white"/>
<path opacity="0.3" d="M359.407 225.568C358.788 225.477 358.212 225.904 358.12 226.523C358.028 227.142 358.455 227.718 359.074 227.81C359.693 227.902 360.27 227.475 360.362 226.856C360.453 226.237 360.026 225.66 359.407 225.568Z" fill="white"/>
<path opacity="0.3" d="M425.122 234.17C424.503 234.078 423.927 234.506 423.835 235.125C423.743 235.744 424.171 236.32 424.79 236.412C425.409 236.504 425.985 236.076 426.077 235.457C426.169 234.838 425.741 234.262 425.122 234.17Z" fill="white"/>
<path opacity="0.3" d="M748.11 272.365C747.491 272.273 746.915 272.701 746.823 273.32C746.731 273.939 747.158 274.515 747.778 274.607C748.397 274.699 748.973 274.272 749.065 273.653C749.157 273.033 748.729 272.457 748.11 272.365Z" fill="white"/>
<path opacity="0.3" d="M788.923 309.912C788.304 309.82 787.727 310.248 787.635 310.867C787.544 311.486 787.971 312.062 788.59 312.154C789.209 312.246 789.785 311.818 789.877 311.199C789.969 310.58 789.542 310.004 788.923 309.912Z" fill="white"/>
<path opacity="0.11" d="M379.884 245.779C379.265 245.688 378.689 246.115 378.597 246.734C378.505 247.353 378.932 247.929 379.551 248.021C380.17 248.113 380.747 247.686 380.839 247.067C380.931 246.448 380.503 245.871 379.884 245.779Z" fill="white"/>
<path opacity="0.3" d="M705.981 317.068C705.362 316.977 704.786 317.404 704.694 318.023C704.602 318.642 705.03 319.218 705.649 319.31C706.268 319.402 706.844 318.975 706.936 318.356C707.028 317.737 706.6 317.16 705.981 317.068Z" fill="white"/>
<path opacity="0.11" d="M719.446 330.522C718.827 330.43 718.251 330.857 718.159 331.476C718.067 332.095 718.494 332.672 719.113 332.763C719.733 332.855 720.309 332.428 720.401 331.809C720.493 331.19 720.065 330.613 719.446 330.522Z" fill="white"/>
<path opacity="0.3" d="M729.251 295.334C728.632 295.242 728.055 295.67 727.964 296.289C727.872 296.908 728.299 297.484 728.918 297.576C729.537 297.668 730.114 297.24 730.205 296.621C730.297 296.002 729.87 295.426 729.251 295.334Z" fill="white"/>
<path d="M694.155 290.694C693.691 290.626 693.259 290.946 693.19 291.41C693.121 291.874 693.441 292.306 693.906 292.375C694.37 292.444 694.802 292.124 694.871 291.66C694.94 291.195 694.619 290.763 694.155 290.694Z" fill="white"/>
<path opacity="0.11" d="M311.38 144.764C310.761 144.672 310.184 145.099 310.092 145.718C310.001 146.337 310.428 146.914 311.047 147.006C311.666 147.097 312.242 146.67 312.334 146.051C312.426 145.432 311.999 144.856 311.38 144.764Z" fill="white"/>
<path d="M308.652 138.062C308.187 137.993 307.755 138.313 307.687 138.777C307.618 139.242 307.938 139.674 308.402 139.742C308.866 139.811 309.299 139.491 309.367 139.027C309.436 138.563 309.116 138.13 308.652 138.062Z" fill="white"/>
<path d="M288.413 147.077C287.949 147.008 287.517 147.329 287.448 147.793C287.379 148.257 287.699 148.689 288.163 148.758C288.628 148.827 289.06 148.507 289.129 148.042C289.197 147.578 288.877 147.146 288.413 147.077Z" fill="white"/>
<path d="M335.866 155.265C335.402 155.196 334.97 155.516 334.901 155.98C334.832 156.445 335.153 156.877 335.617 156.946C336.081 157.014 336.513 156.694 336.582 156.23C336.651 155.766 336.331 155.334 335.866 155.265Z" fill="white"/>
<path opacity="0.11" d="M365.595 145.936C364.976 145.844 364.4 146.271 364.308 146.89C364.216 147.509 364.643 148.086 365.262 148.177C365.881 148.269 366.458 147.842 366.55 147.223C366.641 146.604 366.214 146.027 365.595 145.936Z" fill="white"/>
<path d="M374.407 159.844C374.098 159.798 373.81 160.011 373.764 160.321C373.719 160.63 373.932 160.918 374.241 160.964C374.551 161.01 374.838 160.796 374.884 160.487C374.93 160.178 374.717 159.89 374.407 159.844Z" fill="white"/>
<path d="M316.298 123.164C315.989 123.118 315.701 123.332 315.655 123.641C315.609 123.95 315.823 124.238 316.132 124.284C316.441 124.33 316.729 124.116 316.775 123.807C316.821 123.498 316.607 123.21 316.298 123.164Z" fill="white"/>
<path d="M194.165 105.039C193.856 104.993 193.568 105.207 193.522 105.516C193.476 105.825 193.689 106.113 193.999 106.159C194.308 106.205 194.596 105.991 194.642 105.682C194.688 105.373 194.474 105.085 194.165 105.039Z" fill="white"/>
<path d="M128.611 126.234C128.301 126.189 128.013 126.402 127.968 126.711C127.922 127.021 128.135 127.309 128.444 127.354C128.754 127.4 129.042 127.187 129.087 126.878C129.133 126.568 128.92 126.28 128.611 126.234Z" fill="white"/>
<path d="M112.825 82.0938C112.516 82.0479 112.228 82.2615 112.182 82.5707C112.136 82.88 112.349 83.1679 112.659 83.2138C112.968 83.2597 113.256 83.0462 113.302 82.7369C113.348 82.4276 113.134 82.1397 112.825 82.0938Z" fill="white"/>
<path d="M500.782 164.852C500.473 164.806 500.185 165.019 500.139 165.329C500.093 165.638 500.307 165.926 500.616 165.972C500.925 166.017 501.213 165.804 501.259 165.495C501.305 165.185 501.091 164.898 500.782 164.852Z" fill="white"/>
<path opacity="0.11" d="M504.696 196.352C504.387 196.306 504.099 196.519 504.053 196.829C504.007 197.138 504.221 197.426 504.53 197.472C504.839 197.517 505.127 197.304 505.173 196.995C505.219 196.685 505.005 196.398 504.696 196.352Z" fill="white"/>
<path opacity="0.11" d="M530.696 187.039C530.387 186.993 530.099 187.207 530.053 187.516C530.007 187.825 530.221 188.113 530.53 188.159C530.839 188.205 531.127 187.991 531.173 187.682C531.219 187.373 531.005 187.085 530.696 187.039Z" fill="white"/>
<path opacity="0.11" d="M517.196 150.68C516.887 150.634 516.599 150.847 516.553 151.157C516.507 151.466 516.721 151.754 517.03 151.8C517.339 151.846 517.627 151.632 517.673 151.323C517.719 151.014 517.505 150.726 517.196 150.68Z" fill="white"/>
<path opacity="0.11" d="M380.54 153.313C380.231 153.267 379.943 153.48 379.897 153.789C379.851 154.099 380.065 154.387 380.374 154.433C380.683 154.478 380.971 154.265 381.017 153.956C381.063 153.646 380.85 153.358 380.54 153.313Z" fill="white"/>
<path opacity="0.11" d="M320.415 103.156C320.106 103.11 319.818 103.324 319.772 103.633C319.726 103.943 319.94 104.23 320.249 104.276C320.558 104.322 320.846 104.109 320.892 103.799C320.938 103.49 320.725 103.202 320.415 103.156Z" fill="white"/>
<path opacity="0.11" d="M212.012 92.8048C211.703 92.7589 211.415 92.9724 211.369 93.2817C211.323 93.5909 211.537 93.8788 211.846 93.9247C212.156 93.9706 212.443 93.7571 212.489 93.4478C212.535 93.1386 212.322 92.8507 212.012 92.8048Z" fill="white"/>
<path opacity="0.3" d="M472.935 175.031C472.626 174.985 472.338 175.199 472.292 175.508C472.246 175.817 472.459 176.105 472.769 176.151C473.078 176.197 473.366 175.984 473.412 175.674C473.458 175.365 473.244 175.077 472.935 175.031Z" fill="white"/>
<path d="M339.587 186.164C339.277 186.118 338.989 186.332 338.944 186.641C338.898 186.95 339.111 187.238 339.42 187.284C339.73 187.33 340.018 187.116 340.064 186.807C340.109 186.498 339.896 186.21 339.587 186.164Z" fill="white"/>
<path d="M253.142 174.484C252.833 174.439 252.545 174.652 252.499 174.961C252.453 175.271 252.666 175.559 252.976 175.604C253.285 175.65 253.573 175.437 253.619 175.128C253.665 174.818 253.451 174.53 253.142 174.484Z" fill="white"/>
<path d="M385.329 140.274C385.02 140.228 384.732 140.441 384.686 140.75C384.64 141.06 384.854 141.348 385.163 141.393C385.472 141.439 385.76 141.226 385.806 140.917C385.852 140.607 385.639 140.319 385.329 140.274Z" fill="white"/>
<path opacity="0.3" d="M424.548 146.094C424.239 146.048 423.951 146.261 423.905 146.571C423.859 146.88 424.073 147.168 424.382 147.214C424.691 147.26 424.979 147.046 425.025 146.737C425.071 146.428 424.857 146.14 424.548 146.094Z" fill="white"/>
<path opacity="0.11" d="M465.333 187.649C465.024 187.603 464.736 187.816 464.69 188.125C464.644 188.435 464.858 188.723 465.167 188.768C465.476 188.814 465.764 188.601 465.81 188.292C465.856 187.982 465.642 187.694 465.333 187.649Z" fill="white"/>
<path opacity="0.3" d="M331.493 171.219C331.184 171.173 330.896 171.386 330.85 171.696C330.804 172.005 331.017 172.293 331.327 172.339C331.636 172.385 331.924 172.171 331.97 171.862C332.016 171.553 331.802 171.265 331.493 171.219Z" fill="white"/>
<path opacity="0.3" d="M377.384 128.219C377.075 128.173 376.787 128.386 376.741 128.696C376.695 129.005 376.909 129.293 377.218 129.339C377.527 129.385 377.815 129.171 377.861 128.862C377.907 128.553 377.693 128.265 377.384 128.219Z" fill="white"/>
<path opacity="0.3" d="M446.005 132.672C445.696 132.626 445.408 132.84 445.362 133.149C445.316 133.458 445.53 133.746 445.839 133.792C446.148 133.838 446.436 133.624 446.482 133.315C446.528 133.006 446.314 132.718 446.005 132.672Z" fill="white"/>
<path opacity="0.3" d="M456.685 172.617C456.376 172.571 456.088 172.785 456.042 173.094C455.996 173.403 456.209 173.691 456.519 173.737C456.828 173.783 457.116 173.57 457.162 173.26C457.208 172.951 456.994 172.663 456.685 172.617Z" fill="white"/>
<path opacity="0.3" d="M107.97 122.602C107.661 122.556 107.373 122.769 107.327 123.079C107.281 123.388 107.494 123.676 107.804 123.722C108.113 123.768 108.401 123.554 108.447 123.245C108.493 122.935 108.279 122.648 107.97 122.602Z" fill="white"/>
<path opacity="0.11" d="M194.759 158.953C194.45 158.907 194.162 159.121 194.116 159.43C194.07 159.739 194.284 160.027 194.593 160.073C194.902 160.119 195.19 159.906 195.236 159.596C195.282 159.287 195.068 158.999 194.759 158.953Z" fill="white"/>
<path opacity="0.11" d="M126.665 100.75C126.356 100.704 126.068 100.918 126.022 101.227C125.976 101.536 126.189 101.824 126.499 101.87C126.808 101.916 127.096 101.702 127.142 101.393C127.188 101.084 126.974 100.796 126.665 100.75Z" fill="white"/>
<path opacity="0.3" d="M269.157 116.74C268.538 116.648 267.962 117.076 267.87 117.695C267.778 118.314 268.206 118.89 268.825 118.982C269.444 119.074 270.02 118.647 270.112 118.028C270.204 117.408 269.777 116.832 269.157 116.74Z" fill="white"/>
<path opacity="0.11" d="M233.611 128.639C232.992 128.547 232.415 128.974 232.323 129.593C232.232 130.212 232.659 130.789 233.278 130.881C233.897 130.972 234.473 130.545 234.565 129.926C234.657 129.307 234.23 128.731 233.611 128.639Z" fill="white"/>
<path d="M230.975 148.296C230.511 148.227 230.079 148.548 230.01 149.012C229.941 149.476 230.262 149.908 230.726 149.977C231.19 150.046 231.622 149.725 231.691 149.261C231.76 148.797 231.44 148.365 230.975 148.296Z" fill="white"/>
<path d="M278.358 95.2022C277.894 95.1334 277.462 95.4538 277.393 95.918C277.324 96.3821 277.645 96.8142 278.109 96.8831C278.573 96.952 279.005 96.6315 279.074 96.1674C279.143 95.7032 278.822 95.2711 278.358 95.2022Z" fill="white"/>
<path d="M94.0266 56.3976C93.5625 56.3287 93.1304 56.6491 93.0615 57.1133C92.9927 57.5775 93.3131 58.0096 93.7773 58.0784C94.2414 58.1473 94.6735 57.8269 94.7424 57.3627C94.8112 56.8985 94.4908 56.4664 94.0266 56.3976Z" fill="white"/>
<path d="M456.21 119.874C455.746 119.805 455.313 120.126 455.245 120.59C455.176 121.054 455.496 121.486 455.96 121.555C456.425 121.624 456.857 121.303 456.925 120.839C456.994 120.375 456.674 119.943 456.21 119.874Z" fill="white"/>
<path d="M528.807 143.812C528.343 143.743 527.911 144.063 527.842 144.527C527.773 144.992 528.094 145.424 528.558 145.492C529.022 145.561 529.454 145.241 529.523 144.777C529.592 144.313 529.272 143.88 528.807 143.812Z" fill="white"/>
<path d="M535.01 167.64C534.546 167.571 534.114 167.891 534.045 168.355C533.976 168.82 534.297 169.252 534.761 169.321C535.225 169.389 535.657 169.069 535.726 168.605C535.795 168.141 535.475 167.709 535.01 167.64Z" fill="white"/>
<path d="M259.53 141.077C259.066 141.008 258.634 141.329 258.565 141.793C258.496 142.257 258.817 142.689 259.281 142.758C259.745 142.827 260.177 142.507 260.246 142.042C260.315 141.578 259.994 141.146 259.53 141.077Z" fill="white"/>
<path d="M363.163 114.085C362.699 114.016 362.267 114.337 362.198 114.801C362.129 115.265 362.45 115.697 362.914 115.766C363.378 115.835 363.81 115.514 363.879 115.05C363.948 114.586 363.628 114.154 363.163 114.085Z" fill="white"/>
<path d="M225.557 69.046C225.093 68.9771 224.661 69.2976 224.592 69.7617C224.523 70.2259 224.844 70.658 225.308 70.7269C225.772 70.7957 226.204 70.4753 226.273 70.0111C226.342 69.5469 226.022 69.1148 225.557 69.046Z" fill="white"/>
<path d="M71.4407 85.1163C70.9765 85.0474 70.5445 85.3679 70.4756 85.8321C70.4067 86.2962 70.7271 86.7283 71.1913 86.7972C71.6555 86.8661 72.0876 86.5456 72.1564 86.0814C72.2253 85.6173 71.9049 85.1852 71.4407 85.1163Z" fill="white"/>
<path d="M53.4212 113.929C52.957 113.86 52.5249 114.18 52.4561 114.645C52.3872 115.109 52.7076 115.541 53.1718 115.61C53.6359 115.679 54.068 115.358 54.1369 114.894C54.2058 114.43 53.8853 113.998 53.4212 113.929Z" fill="white"/>
<path opacity="0.3" d="M184.845 140.881C184.226 140.789 183.65 141.216 183.558 141.836C183.466 142.455 183.893 143.031 184.512 143.123C185.131 143.215 185.708 142.787 185.8 142.168C185.891 141.549 185.464 140.973 184.845 140.881Z" fill="white"/>
<path d="M178.942 180.654C178.323 180.563 177.747 180.99 177.655 181.609C177.563 182.228 177.991 182.804 178.61 182.896C179.229 182.988 179.805 182.561 179.897 181.942C179.989 181.323 179.561 180.746 178.942 180.654Z" fill="white"/>
<path d="M157.819 124.265C157.355 124.196 156.923 124.516 156.854 124.98C156.785 125.445 157.106 125.877 157.57 125.946C158.034 126.014 158.466 125.694 158.535 125.23C158.604 124.766 158.283 124.334 157.819 124.265Z" fill="white"/>
<path opacity="0.3" d="M127.403 142.084C126.784 141.992 126.208 142.42 126.116 143.039C126.024 143.658 126.451 144.234 127.071 144.326C127.69 144.418 128.266 143.99 128.358 143.371C128.45 142.752 128.022 142.176 127.403 142.084Z" fill="white"/>
<path opacity="0.3" d="M77.8372 94.0763C77.2181 93.9844 76.6419 94.4118 76.55 95.0309C76.4582 95.6499 76.8855 96.2262 77.5046 96.3181C78.1237 96.4099 78.6999 95.9825 78.7918 95.3635C78.8836 94.7444 78.4563 94.1681 77.8372 94.0763Z" fill="white"/>
<path opacity="0.3" d="M143.552 102.678C142.933 102.586 142.356 103.013 142.264 103.632C142.173 104.251 142.6 104.828 143.219 104.92C143.838 105.011 144.414 104.584 144.506 103.965C144.598 103.346 144.171 102.77 143.552 102.678Z" fill="white"/>
<path opacity="0.3" d="M466.544 140.873C465.925 140.781 465.349 141.209 465.257 141.828C465.165 142.447 465.593 143.023 466.212 143.115C466.831 143.207 467.407 142.779 467.499 142.16C467.591 141.541 467.163 140.965 466.544 140.873Z" fill="white"/>
<path opacity="0.3" d="M507.356 178.42C506.737 178.328 506.161 178.756 506.069 179.375C505.977 179.994 506.405 180.57 507.024 180.662C507.643 180.754 508.219 180.326 508.311 179.707C508.403 179.088 507.975 178.512 507.356 178.42Z" fill="white"/>
<path opacity="0.11" d="M98.3177 114.295C97.6986 114.203 97.1223 114.631 97.0305 115.25C96.9386 115.869 97.366 116.445 97.9851 116.537C98.6041 116.629 99.1804 116.201 99.2723 115.582C99.3641 114.963 98.9367 114.387 98.3177 114.295Z" fill="white"/>
<path opacity="0.3" d="M424.419 185.584C423.8 185.492 423.224 185.92 423.132 186.539C423.04 187.158 423.468 187.734 424.087 187.826C424.706 187.918 425.282 187.49 425.374 186.871C425.466 186.252 425.038 185.676 424.419 185.584Z" fill="white"/>
<path opacity="0.11" d="M437.884 199.037C437.265 198.945 436.689 199.373 436.597 199.992C436.505 200.611 436.932 201.187 437.551 201.279C438.17 201.371 438.747 200.943 438.839 200.324C438.931 199.705 438.503 199.129 437.884 199.037Z" fill="white"/>
<path opacity="0.3" d="M447.68 163.842C447.061 163.75 446.485 164.177 446.393 164.796C446.301 165.416 446.729 165.992 447.348 166.084C447.967 166.176 448.543 165.748 448.635 165.129C448.727 164.51 448.299 163.934 447.68 163.842Z" fill="white"/>
<path d="M412.585 159.21C412.121 159.141 411.689 159.462 411.62 159.926C411.551 160.39 411.872 160.822 412.336 160.891C412.8 160.96 413.232 160.639 413.301 160.175C413.37 159.711 413.049 159.279 412.585 159.21Z" fill="white"/>
</g>
</g>
</g>
<defs>
<radialGradient id="paint0_radial_1_6503" cx="0" cy="0" r="1" gradientTransform="matrix(578.644 289.322 -578.644 289.322 578.644 289.322)" gradientUnits="userSpaceOnUse">
<stop stop-color="#8CD8BC"/>
<stop offset="0.7" stop-opacity="0"/>
</radialGradient>
<radialGradient id="paint1_radial_1_6503" cx="0" cy="0" r="1" gradientTransform="matrix(420.481 352.491 -420.481 352.491 1385.96 838.913)" gradientUnits="userSpaceOnUse">
<stop/>
<stop offset="1" stop-opacity="0"/>
</radialGradient>
<clipPath id="clip0_1_6503">
<rect width="1157.29" height="578.644" fill="white" transform="matrix(-1 0 0 1 1123.64 -99)"/>
</clipPath>
<clipPath id="clip1_1_6503">
<rect width="840.963" height="704.981" fill="white" transform="translate(627.098 676.438) rotate(-138.579)"/>
</clipPath>
</defs>
</svg>
